:SAMPLES-PER-SECOND 30
:FULLY-SPECIFIED
:DEGREES
108
root  42.8019 39.9753 0.827259 76.0543 88.2706 81.6288
RightUpLeg  -8.28329 -9.63025 -8.60776
RightLeg  11.3464 5.21671 1.77017
RightFoot  3.42685 -0.404576 3.28749
RightToes  -2.9104e-010 0 -3.6325e-017
Spine  9.21497 2.92337 6.5357
Spine1  13.4997 6.905 -10.5502
HEad  -8.09476 -3.2373 -4.3789
LeftShoulder1  8.62948 -13.7755 -43.448
LeftArm  -18.8244 5.95378 -24.2139
LeftForeArm  49.9016 -69.7385 -25.3705
LeftHand  -0.244104 0.0205437 5.32207
RightShoulder  4.88221 10.2856 29.4272
RightArm  -2.72026 41.3601 32.8485
RightForeArm  -33.8549 55.1328 18.6015
RightHand  -3.40341 9.58095 -26.2542
LeftUpLeg  -4.58626 3.98981 -1.65786
LeftLeg  6.69835 9.51472 -4.28151
LeftFoot  3.84013 -0.779405 5.66897
LeftToes  1.09107e-011 -5.80176e-011 5.60941e-012
109
root  43.3175 40.107 0.944214 75.0523 88.4446 80.5251
RightUpLeg  -6.98942 -9.3337 -8.37933
RightLeg  10.5379 4.33136 1.69463
RightFoot  3.3367 -0.248871 2.10517
RightToes  -2.9104e-010 0 -3.6325e-017
Spine  8.80263 3.40726 8.20816
Spine1  13.554 8.04896 -12.2668
HEad  -8.71387 -4.4396 -3.44754
LeftShoulder1  8.65261 -13.857 -43.3553
LeftArm  -17.9235 5.61275 -24.5253
LeftForeArm  45.1404 -64.8286 -19.4788
LeftHand  -0.244104 0.0205437 5.32207
RightShoulder  4.63535 10.1912 27.8346
RightArm  8.19861 43.55 29.4662
RightForeArm  -49.801 47.7733 14.7741
RightHand  -2.92049 8.22557 -24.8492
LeftUpLeg  -3.40814 3.59325 -1.41662
LeftLeg  5.80392 9.69463 -4.06566
LeftFoot  3.58828 -0.708255 5.2355
LeftToes  1.09107e-011 -5.80176e-011 5.60941e-012
110
root  43.7997 40.2065 1.07658 88.221 88.5752 93.4731
RightUpLeg  -5.89813 -9.40504 -8.30593
RightLeg  9.65185 3.48683 1.85484
RightFoot  3.06691 -0.166524 1.48455
RightToes  -2.9104e-010 0 -3.6325e-017
Spine  8.78705 3.74727 9.6977
Spine1  13.1972 9.03602 -14.1228
HEad  -10.1875 -5.53137 -2.1885
LeftShoulder1  8.72727 -14.1006 -43.1098
LeftArm  -17.04 5.75742 -24.8255
LeftForeArm  42.1291 -58.9275 -14.8198
LeftHand  -0.244104 0.0205437 5.32207
RightShoulder  4.60233 10.3464 27.1935
RightArm  15.8501 42.756 25.9789
RightForeArm  -56.5902 46.9833 14.6157
RightHand  -2.64799 7.19334 -24.3933
LeftUpLeg  -2.59882 3.39566 -1.21538
LeftLeg  5.23883 9.38736 -3.88599
LeftFoot  3.31059 -0.637078 4.79587
LeftToes  1.09107e-011 -5.80176e-011 5.60941e-012
111
root  44.2674 40.2792 1.24221 124.752 88.2997 129.616
RightUpLeg  -5.05482 -9.78881 -8.37581
RightLeg  8.98828 2.89141 2.31282
RightFoot  3.15632 -0.121166 1.12163
RightToes  -2.9104e-010 0 -3.6325e-017
Spine  8.70741 3.83772 10.116
Spine1  12.8145 9.31407 -14.8176
HEad  -12.4782 -6.26745 -1.10857
LeftShoulder1  8.90618 -14.3631 -43.3605
LeftArm  -16.2724 6.58071 -24.6222
LeftForeArm  40.5523 -53.0656 -11.6224
LeftHand  -0.244104 0.0205437 5.32207
RightShoulder  4.73562 10.5728 27.619
RightArm  13.6108 39.3695 23.736
RightForeArm  -51.342 50.835 16.4995
RightHand  -2.54148 6.74809 -24.2572
LeftUpLeg  -2.14386 3.31189 -1.00409
LeftLeg  4.9309 8.3505 -3.79245
LeftFoot  2.8638 -0.571906 4.4483
LeftToes  1.09107e-011 -5.80176e-011 5.60941e-012
112
root  44.7184 40.34 1.43267 152.63 87.2522 156.863
RightUpLeg  -4.44145 -10.07 -8.37602
RightLeg  8.59177 1.83237 2.68837
RightFoot  2.87757 -0.081613 0.811015
RightToes  -2.9104e-010 0 -3.6325e-017
Spine  8.10422 3.67647 9.32849
Spine1  12.7492 8.74854 -13.877
HEad  -14.94 -6.18012 -0.671563
LeftShoulder1  9.14429 -14.435 -44.396
LeftArm  -15.5322 7.92851 -23.8624
LeftForeArm  38.7093 -47.0517 -9.23928
LeftHand  -0.244104 0.0205437 5.32207
RightShoulder  4.91286 10.5305 29.0248
RightArm  4.7647 35.6787 24.1041
RightForeArm  -40.1712 56.0931 19.5796
RightHand  -2.23107 5.87516 -22.9874
LeftUpLeg  -2.09254 3.2312 -0.753632
LeftLeg  4.76486 6.89309 -3.68725
LeftFoot  2.45552 -0.519747 4.17146
LeftToes  1.09107e-011 -5.80176e-011 5.60941e-012
113
root  45.1324 40.3979 1.6245 162.478 86.1608 165.936
RightUpLeg  -3.98793 -10.0406 -8.24148
RightLeg  8.04601 0.392056 2.91318
RightFoot  2.17373 -0.0607762 0.63836
RightToes  -2.9104e-010 0 -3.6325e-017
Spine  7.07972 3.39077 7.99359
Spine1  12.9709 7.79326 -12.1534
HEad  -16.7408 -5.19478 -0.746704
LeftShoulder1  9.33437 -14.3296 -45.6378
LeftArm  -14.5761 9.36058 -23.1963
LeftForeArm  35.1467 -39.9215 -7.14116
LeftHand  -0.244104 0.0205437 5.32207
RightShoulder  5.2104 10.4468 31.3957
RightArm  -4.44299 33.1434 26.0539
RightForeArm  -29.876 61.3224 23.676
RightHand  -2.05466 5.34322 -22.251
LeftUpLeg  -2.2562 3.04359 -0.531064
LeftLeg  4.53294 5.76005 -3.4878
LeftFoot  2.25988 -0.477852 3.89111
LeftToes  1.09107e-011 -5.80176e-011 5.60941e-012
114
root  45.4941 40.451 1.79584 165.157 85.7544 168.064
RightUpLeg  -3.55141 -9.79939 -8.03744
RightLeg  7.33479 -0.457241 3.12512
RightFoot  1.75778 -0.0427281 0.47692
RightToes  -2.9104e-010 0 -3.6325e-017
Spine  6.21125 3.23802 6.99137
Spine1  13.2975 7.17265 -10.8858
HEad  -17.569 -4.02418 -0.834442
LeftShoulder1  9.3895 -14.2081 -46.241
LeftArm  -12.8528 10.427 -23.3864
LeftForeArm  29.5909 -31.432 -5.18603
LeftHand  -0.244104 0.0205437 5.32207
RightShoulder  5.69291 10.7144 34.0833
RightArm  -10.6368 32.0174 27.683
RightForeArm  -23.1278 64.4125 26.8315
RightHand  -2.42143 6.56472 -23.4821
LeftUpLeg  -2.1019 2.84223 -0.355233
LeftLeg  4.08079 5.48488 -3.24149
LeftFoot  2.11993 -0.443954 3.65198
LeftToes  1.09107e-011 -5.80176e-011 5.60941e-012
115
root  45.8057 40.4929 1.93254 164.063 86.2142 166.894
RightUpLeg  -3.01304 -9.53885 -7.79429
RightLeg  6.84752 -0.246151 3.29013
RightFoot  1.72604 -0.00333302 0.13191
RightToes  -2.9104e-010 0 -3.6325e-017
Spine  5.80288 3.37061 6.70986
Spine1  13.6709 7.2105 -10.5282
HEad  -17.5845 -3.45285 -0.583291
LeftShoulder1  9.31514 -14.1484 -46.0234
LeftArm  -10.6649 11.1222 -24.4293
LeftForeArm  23.9244 -22.6154 -3.88733
LeftHand  -0.244104 0.0205437 5.32207
RightShoulder  6.10698 11.1636 35.6657
RightArm  -12.7324 32.4314 28.4752
RightForeArm  -22.6772 63.363 25.5791
RightHand  -2.88025 8.0759 -24.7903
LeftUpLeg  -1.3877 2.87823 -0.13111
LeftLeg  3.57386 5.90225 -3.07116
LeftFoot  1.83476 -0.414378 3.49079
LeftToes  1.09107e-011 -5.80176e-011 5.60941e-012
116
root  46.0776 40.5225 2.02838 160.199 87.1873 163.186
RightUpLeg  -2.46401 -9.29111 -7.5285
RightLeg  6.61943 0.451379 3.34532
RightFoot  1.60066 0.0348831 -0.211303
RightToes  -2.9104e-010 0 -3.6325e-017
Spine  5.55522 3.64126 6.97195
Spine1  14.0608 7.61787 -10.7778
HEad  -16.9877 -3.55019 0.0381071
LeftShoulder1  9.23176 -14.1518 -45.5888
LeftArm  -10.8631 11.9515 -25.4222
LeftForeArm  22.7795 -14.8802 -4.31502
LeftHand  -0.244104 0.0205437 5.32207
RightShoulder  6.13764 11.3716 35.2889
RightArm  -9.93069 34.4507 29.2428
RightForeArm  -29.4573 57.6843 20.3988
RightHand  -2.95888 8.53492 -24.6223
LeftUpLeg  -0.529672 3.13235 0.200678
LeftLeg  3.28481 6.53903 -3.05342
LeftFoot  1.43725 -0.379016 3.30603
LeftToes  1.09107e-011 -5.80176e-011 5.60941e-012
117
root  46.3166 40.5466 2.08819 152.671 88.1461 155.648
RightUpLeg  -2.1175 -9.04728 -7.29092
RightLeg  6.34443 1.0494 3.3552
RightFoot  1.36369 0.045931 -0.3251
RightToes  -2.9104e-010 0 -3.6325e-017
Spine  5.18406 3.8509 7.53349
Spine1  14.2858 8.04485 -11.3565
HEad  -16.0718 -3.97674 0.859707
LeftShoulder1  9.27989 -14.2333 -45.6163
LeftArm  -11.6924 13.3268 -25.7055
LeftForeArm  24.8755 -9.58052 -4.93891
LeftHand  -0.244104 0.0205437 5.32207
RightShoulder  5.87748 11.2814 33.8008
RightArm  -2.40353 37.4039 30.135
RightForeArm  -39.6545 49.4675 15.4075
RightHand  -2.78158 8.3569 -23.4952
LeftUpLeg  0.0217573 3.39999 0.527527
LeftLeg  3.1484 7.09195 -3.12263
LeftFoot  1.08142 -0.337281 3.03847
LeftToes  1.09107e-011 -5.80176e-011 5.60941e-012
118
root  46.5256 40.5703 2.1287 139.18 88.7923 141.922
RightUpLeg  -2.00004 -8.83806 -7.10576
RightLeg  5.96144 1.48528 3.36492
RightFoot  1.31793 0.0487538 -0.339139
RightToes  -2.9104e-010 0 -3.6325e-017
Spine  4.86697 4.01684 8.24086
Spine1  14.2435 8.46201 -12.1351
HEad  -15.4749 -4.57681 1.66074
LeftShoulder1  9.44793 -14.3591 -46.1323
LeftArm  -10.6648 15.1312 -25.474
LeftForeArm  26.804 -7.25796 -5.0379
LeftHand  -0.244104 0.0205437 5.32207
RightShoulder  5.67769 11.1877 32.7016
RightArm  7.38732 39.9301 30.1749
RightForeArm  -48.4025 42.5527 12.5226
RightHand  -2.61184 8.10412 -22.5173
LeftUpLeg  0.32053 3.50613 0.706537
LeftLeg  2.88302 7.58825 -3.16081
LeftFoot  0.848898 -0.30324 2.79171
LeftToes  1.09107e-011 -5.80176e-011 5.60941e-012
